<?xml version="1.0" standalone="no"?>
<!DOCTYPE svg PUBLIC "-//W3C//DTD SVG 20010904//EN"
 "http://www.w3.org/TR/2001/REC-SVG-20010904/DTD/svg10.dtd">
<svg version="1.0" xmlns="http://www.w3.org/2000/svg"
 width="980.000000pt" height="920.000000pt" viewBox="0 0 980.000000 920.000000"
 preserveAspectRatio="xMidYMid meet">

<g transform="translate(0.000000,920.000000) scale(0.100000,-0.100000)"
fill="#103153" stroke="none">
<path d="M635 9173 c-153 -32 -296 -114 -412 -236 -118 -125 -189 -269 -213
-432 -8 -59 -10 -1118 -8 -3955 3 -3721 4 -3877 22 -3935 46 -151 103 -252
200 -353 118 -124 259 -203 418 -236 69 -14 279 -16 1937 -16 l1860 0 58 21
c80 31 173 123 202 202 28 78 28 177 -1 254 -27 73 -102 154 -177 190 l-56 28
-1720 5 -1720 5 -55 22 c-115 47 -209 146 -244 255 -15 49 -16 320 -14 3623
l3 3570 32 67 c59 124 168 206 303 228 90 14 5270 14 5360 0 135 -22 244 -104
303 -228 l32 -67 5 -800 c4 -535 9 -810 17 -830 23 -66 53 -113 102 -158 77
-72 127 -92 236 -92 82 0 97 3 157 33 77 37 128 90 167 172 l26 55 0 975 0
975 -23 79 c-23 80 -75 194 -115 250 -40 58 -152 168 -211 208 -79 55 -170 95
-269 118 -81 20 -129 20 -3107 19 -2643 -1 -3034 -3 -3095 -16z"/>
<path d="M1637 7349 c-103 -24 -197 -104 -245 -207 -21 -47 -26 -72 -26 -138
0 -71 4 -89 32 -146 38 -78 101 -139 180 -176 l57 -27 2074 -3 c1808 -2 2082
0 2133 13 188 48 302 238 254 425 -24 94 -75 164 -159 216 -88 57 26 54 -2207
53 -1152 -1 -2071 -5 -2093 -10z"/>
<path d="M6388 5620 c-406 -34 -792 -168 -1126 -390 -155 -104 -235 -169 -366
-298 -198 -195 -330 -377 -457 -627 -176 -348 -253 -674 -253 -1070 -1 -221 9
-321 50 -517 175 -838 780 -1550 1529 -1796 297 -98 554 -121 910 -82 564 63
927 176 1243 387 l96 64 620 -619 c342 -341 637 -628 656 -639 27 -14 57 -18
131 -18 90 0 99 2 172 38 133 66 200 177 201 337 1 71 -3 93 -23 130 -16 30
-224 246 -639 663 -595 595 -616 618 -603 640 54 85 175 313 222 417 167 368
223 617 223 995 0 238 -16 367 -69 580 -44 175 -91 300 -180 480 -356 720
-1054 1216 -1850 1314 -123 15 -368 21 -487 11z m535 -729 c203 -44 409 -129
575 -237 797 -519 1018 -1576 492 -2366 -519 -780 -1576 -991 -2351 -469 -643
432 -913 1229 -663 1960 113 331 335 626 629 836 107 77 314 181 441 223 79
27 236 62 329 76 17 2 125 3 240 1 168 -2 230 -7 308 -24z"/>
<path d="M1588 5186 c-114 -47 -185 -129 -215 -250 -38 -155 39 -316 185 -388
l67 -33 1080 0 1080 0 56 28 c69 33 132 99 167 175 23 48 27 71 27 142 0 71
-4 94 -27 142 -35 76 -98 142 -167 175 l-56 28 -1070 2 -1070 3 -57 -24z"/>
<path d="M1637 3119 c-135 -32 -242 -146 -268 -287 -27 -142 55 -302 188 -370
80 -41 128 -43 838 -40 l680 3 62 29 c74 34 153 112 185 183 17 37 22 68 22
138 1 80 -2 97 -28 150 -39 78 -110 147 -183 177 l-58 23 -700 2 c-387 1 -717
-3 -738 -8z"/>
</g>
</svg>
