<?xml version="1.0" standalone="no"?>
<!DOCTYPE svg PUBLIC "-//W3C//DTD SVG 20010904//EN"
 "http://www.w3.org/TR/2001/REC-SVG-20010904/DTD/svg10.dtd">
<svg version="1.0" xmlns="http://www.w3.org/2000/svg"
 width="200.000000pt" height="200.000000pt" viewBox="0 0 200.000000 200.000000"
 preserveAspectRatio="xMidYMid meet">
<metadata>
Created by potrace 1.16, written by Peter Selinger 2001-2019
</metadata>
<g transform="translate(0.000000,200.000000) scale(0.100000,-0.100000)"
fill="#000000" stroke="none">
<path d="M713 1815 l-20 -14 18 -102 c19 -103 18 -119 -6 -119 -17 0 -20 11
-35 103 -8 47 -17 77 -25 77 -23 0 -93 -59 -125 -105 -33 -47 -54 -103 -65
-167 -4 -27 -11 -38 -23 -38 -26 0 -42 -20 -42 -51 0 -60 -6 -59 420 -59 420
0 420 0 420 53 0 30 -11 44 -41 56 -22 8 -27 17 -32 59 -11 92 -87 206 -165
246 l-30 15 -7 -47 c-14 -97 -27 -142 -40 -142 -24 0 -25 16 -8 120 17 100 17
102 -2 116 -26 19 -163 19 -192 -1z"/>
<path d="M460 1273 c0 -50 29 -152 61 -214 116 -231 340 -281 499 -113 55 58
100 145 125 239 22 87 20 115 -8 115 -21 0 -25 -7 -36 -65 -28 -137 -112 -264
-204 -306 -158 -71 -335 71 -378 304 -11 60 -15 67 -36 67 -18 0 -23 -5 -23
-27z"/>
<path d="M1622 1087 c-23 -23 -42 -52 -42 -63 0 -24 41 -66 61 -62 29 7 20
-35 -17 -73 l-38 -39 46 -47 47 -46 41 37 c34 31 44 35 56 25 11 -9 14 -23 10
-44 -5 -24 -1 -36 14 -50 20 -18 21 -18 46 6 40 37 54 73 54 139 0 60 -1 62
-51 115 -30 32 -63 56 -81 60 -21 5 -28 11 -23 23 7 20 -32 62 -60 62 -11 0
-40 -19 -63 -43z"/>
<path d="M1357 1072 c-16 -17 -14 -21 23 -57 49 -47 55 -98 17 -133 -35 -33
-65 -28 -114 20 -36 35 -47 41 -61 32 -27 -17 -27 -74 0 -114 39 -57 82 -80
152 -80 l61 0 172 -172 c157 -157 175 -172 207 -172 47 0 76 27 76 73 0 33
-13 49 -172 208 l-172 172 3 51 c4 71 -28 132 -83 165 -51 30 -87 32 -109 7z"/>
<path d="M435 886 c-209 -66 -335 -238 -335 -453 0 -108 20 -159 79 -201 75
-55 100 -57 636 -57 443 0 496 2 548 18 70 21 127 74 145 133 14 48 16 184 3
184 -5 0 -46 -40 -92 -90 -104 -114 -116 -116 -201 -32 -85 86 -83 95 48 216
l105 99 -48 16 c-78 26 -115 61 -143 131 -16 41 -26 50 -60 50 -21 0 -30 -11
-57 -68 -34 -71 -173 -292 -185 -292 -3 0 -8 35 -10 78 -3 72 -1 79 24 110 16
18 28 42 28 53 0 16 -4 18 -27 12 -36 -10 -130 -10 -165 0 -24 6 -28 4 -28
-12 0 -11 11 -33 25 -49 21 -25 25 -40 25 -95 0 -113 -5 -111 -95 27 -45 69
-93 150 -106 181 -27 61 -38 65 -114 41z"/>
<path d="M1330 625 c-41 -41 -80 -75 -86 -75 -15 0 -64 -57 -64 -74 0 -17 113
-126 131 -126 17 0 69 50 69 67 0 6 33 41 73 78 39 37 75 77 78 89 5 16 -5 32
-40 69 -25 26 -54 47 -66 47 -12 0 -50 -30 -95 -75z"/>
</g>
</svg>
