<?xml version="1.0" standalone="no"?>
<!DOCTYPE svg PUBLIC "-//W3C//DTD SVG 20010904//EN"
 "http://www.w3.org/TR/2001/REC-SVG-20010904/DTD/svg10.dtd">
<svg version="1.0" xmlns="http://www.w3.org/2000/svg"
 width="980.000000pt" height="976.000000pt" viewBox="0 0 980.000000 976.000000"
 preserveAspectRatio="xMidYMid meet">
<metadata>
Created by potrace 1.16, written by Peter Selinger 2001-2019
</metadata>
<g transform="translate(0.000000,976.000000) scale(0.100000,-0.100000)"
fill="#103153" stroke="none">
<path d="M5790 9750 c-157 -29 -311 -138 -405 -285 -62 -96 -85 -187 -85 -336
0 -356 293 -619 665 -596 147 9 243 52 367 166 72 66 130 152 160 238 19 58
23 88 23 198 0 82 -5 149 -14 180 -58 204 -226 367 -435 420 -73 18 -217 27
-276 15z"/>
<path d="M4205 8960 c-247 -5 -284 -8 -310 -24 -66 -39 -102 -132 -84 -218 18
-82 71 -126 180 -149 l52 -11 -514 -514 -514 -514 -7 84 c-7 91 -25 137 -64
162 -23 15 -30 16 -72 3 l-47 -15 -6 -69 c-4 -39 -7 -137 -8 -219 l-1 -149
-638 -641 c-739 -743 -872 -885 -872 -931 0 -65 76 -113 127 -80 59 39 273
244 816 784 l567 564 0 -1816 0 -1817 -1405 0 -1405 0 0 -200 0 -200 4900 0
4900 0 0 200 0 200 -1635 0 -1635 0 0 823 c1 1361 16 1807 75 2272 14 109 24
199 22 201 -7 7 -172 -69 -195 -90 -33 -29 -25 -66 47 -229 69 -154 79 -193
58 -233 -38 -73 -111 -114 -302 -172 -72 -21 -144 -46 -161 -55 -49 -25 -121
-112 -200 -242 l-73 -120 119 -3 120 -3 0 -1074 0 -1075 -120 0 -120 0 0 593
c0 796 -11 1507 -23 1507 -5 0 -50 -33 -101 -74 -93 -76 -217 -158 -319 -211
l-57 -30 0 -892 0 -893 -1145 0 -1145 0 0 1918 0 1917 673 673 672 672 138 0
c155 0 181 7 240 65 45 44 57 71 57 131 0 65 -20 104 -81 157 l-54 47 -85 -2
c-47 -1 -211 -4 -365 -8z"/>
<path d="M8742 8398 c-5 -7 -13 -27 -16 -44 -4 -18 -15 -39 -24 -47 -26 -24
-112 -55 -245 -87 -154 -38 -205 -62 -223 -106 -7 -17 -26 -42 -40 -53 -69
-54 -1015 -504 -1040 -494 -21 8 -81 95 -232 338 -172 277 -229 356 -267 369
-18 6 -310 11 -741 13 l-711 4 -59 -49 c-155 -129 -675 -648 -788 -785 -72
-88 -84 -159 -37 -224 44 -61 177 -200 540 -566 l336 -338 40 6 c22 4 63 13
91 21 122 33 171 179 97 287 -15 23 -171 186 -345 363 l-318 321 113 109 c129
126 205 190 214 180 3 -3 10 -49 13 -101 8 -95 26 -145 53 -145 43 0 235 113
380 224 122 93 187 133 265 163 59 24 82 27 192 27 148 1 205 -14 272 -73 54
-48 90 -113 117 -210 11 -41 22 -76 24 -78 2 -2 64 20 137 48 92 36 137 49
147 43 25 -15 86 -122 78 -135 -9 -13 -440 -225 -479 -235 -22 -5 -25 -2 -31
33 -14 80 -47 190 -70 229 -79 134 -229 180 -366 111 -30 -16 -105 -69 -167
-120 -255 -207 -325 -247 -430 -247 l-45 0 149 -152 c181 -186 250 -267 280
-332 81 -175 -1 -390 -179 -471 -68 -31 -180 -43 -244 -26 -68 19 -140 82
-525 461 -202 199 -372 359 -378 355 -5 -3 -27 -32 -49 -63 -187 -277 -186
-541 4 -924 157 -316 427 -611 621 -679 179 -63 409 -13 577 126 92 76 170
170 282 340 151 231 201 272 409 339 142 47 189 67 224 99 41 38 29 69 -83
204 -60 73 -85 135 -85 214 0 38 4 50 24 63 39 25 725 386 735 386 5 0 25 -20
45 -44 44 -54 108 -87 174 -88 40 -1 64 6 126 40 139 75 701 448 880 584 87
66 105 91 120 164 l12 59 85 -3 85 -4 109 87 c188 150 187 149 286 153 81 4
87 6 98 28 25 55 5 150 -50 235 -53 84 -138 132 -167 97z"/>
<path d="M514 2836 c-35 -16 -102 -90 -111 -124 -7 -28 47 -242 214 -852 68
-250 167 -610 219 -799 118 -433 144 -554 144 -674 0 -79 -25 -243 -55 -359
l-7 -28 881 0 c485 0 881 2 881 5 0 3 -16 102 -35 221 -19 118 -35 226 -35
238 0 13 92 356 205 762 113 407 249 899 301 1096 87 324 94 360 85 396 -6 22
-21 52 -33 67 -42 54 -146 81 -212 55 -71 -27 -119 -167 -386 -1131 l-193
-697 -351 -7 c-193 -3 -450 -5 -571 -3 l-220 3 -33 115 c-18 63 -107 381 -197
707 -240 861 -271 955 -330 1001 -32 26 -111 30 -161 8z"/>
<path d="M3679 2830 c-52 -28 -109 -97 -109 -133 0 -35 90 -371 380 -1428
l219 -795 -34 -225 c-19 -123 -35 -230 -35 -236 0 -10 147 -13 703 -13 744 0
1009 6 1032 24 11 9 8 43 -25 220 l-38 208 170 612 c311 1122 428 1568 428
1631 0 80 -66 146 -156 153 -63 5 -105 -9 -138 -48 -41 -49 -112 -283 -386
-1274 -77 -281 -142 -512 -144 -513 -7 -7 -1146 -16 -1146 -9 0 22 -360 1314
-453 1629 -25 81 -52 156 -62 167 -46 50 -141 64 -206 30z"/>
<path d="M6881 2839 c-43 -17 -81 -50 -106 -93 l-25 -43 41 -159 c44 -175 152
-569 400 -1469 89 -324 161 -602 161 -616 -1 -15 -16 -115 -32 -223 -17 -108
-30 -205 -30 -217 l0 -21 848 4 c583 3 855 8 873 15 l25 11 -38 211 -39 212
46 167 c453 1630 560 2035 552 2094 -19 145 -231 190 -307 66 -38 -62 -136
-394 -396 -1334 l-118 -431 -255 -6 c-140 -4 -397 -7 -572 -7 l-317 0 -11 33
c-5 17 -40 142 -76 277 -202 745 -400 1432 -423 1473 -32 55 -133 83 -201 56z"/>
<path d="M1725 2300 c-163 -26 -318 -132 -407 -282 -58 -98 -69 -143 -68 -293
0 -138 4 -164 40 -235 89 -177 226 -283 408 -316 187 -33 328 0 459 107 275
224 301 607 59 853 -118 119 -330 190 -491 166z"/>
<path d="M4893 2300 c-124 -22 -244 -89 -331 -184 -59 -65 -124 -192 -141
-274 -76 -371 223 -710 600 -678 152 13 275 71 377 180 140 150 188 360 127
553 -85 268 -369 449 -632 403z"/>
<path d="M8063 2295 c-159 -35 -299 -134 -382 -271 -138 -226 -106 -509 78
-693 224 -225 585 -226 810 -2 252 250 218 658 -72 865 -81 58 -144 85 -237
102 -92 16 -118 16 -197 -1z"/>
</g>
</svg>
