<?xml version="1.0" standalone="no"?>
<!DOCTYPE svg PUBLIC "-//W3C//DTD SVG 20010904//EN"
 "http://www.w3.org/TR/2001/REC-SVG-20010904/DTD/svg10.dtd">
<svg version="1.0" xmlns="http://www.w3.org/2000/svg"
 width="272.000000pt" height="187.000000pt" viewBox="0 0 272.000000 187.000000"
 preserveAspectRatio="xMidYMid meet">
<metadata>
Created by potrace 1.16, written by Peter Selinger 2001-2019
</metadata>
<g transform="translate(0.000000,187.000000) scale(0.100000,-0.100000)"
fill="#103153" stroke="none">
<path d="M93 1840 c-31 -18 -59 -43 -69 -62 -30 -57 -22 -87 55 -202 76 -112
66 -88 517 -1306 4 -11 11 -7 29 15 13 17 24 36 25 43 0 10 -347 953 -395
1075 -6 13 -2 17 16 17 35 0 105 38 134 72 23 27 27 29 43 16 12 -11 828 -657
850 -673 1 -1 -53 -46 -120 -100 -167 -133 -154 -117 -128 -153 l22 -30 145
115 144 115 32 -25 c18 -14 84 -66 147 -115 l115 -91 22 27 c12 15 22 29 22
32 0 3 -60 52 -134 110 -74 58 -134 109 -132 113 1 4 195 161 431 348 l429
340 28 -31 c30 -32 100 -69 133 -70 13 0 17 -5 13 -17 -2 -10 -93 -256 -201
-546 l-196 -528 27 -34 c23 -29 29 -32 34 -17 4 9 104 279 223 599 210 568
217 585 291 699 77 121 85 146 61 192 -43 83 -180 131 -243 87 -12 -9 -54 -64
-92 -123 l-71 -108 -466 -370 c-257 -203 -471 -368 -476 -366 -4 1 -217 167
-471 369 l-463 367 -64 101 c-88 137 -97 145 -162 145 -40 0 -65 -7 -105 -30z"/>
<path d="M1320 638 c-77 -22 -140 -101 -139 -173 1 -41 19 -88 47 -120 13 -15
22 -28 20 -29 -2 -1 -21 -8 -43 -15 -59 -19 -112 -56 -140 -99 -27 -42 -61
-162 -52 -186 6 -14 48 -16 352 -16 304 0 346 2 352 16 9 24 -25 144 -52 186
-28 43 -84 81 -144 100 -37 12 -55 28 -32 28 15 0 61 102 61 134 -1 46 -33
110 -71 139 -28 21 -101 49 -119 46 -3 0 -21 -5 -40 -11z"/>
<path d="M855 605 c-94 -33 -126 -136 -70 -221 19 -29 19 -34 -2 -34 -9 0 -36
-11 -59 -25 -56 -33 -94 -96 -101 -170 l-6 -55 181 0 180 0 17 50 c10 31 36
71 67 105 l50 55 -49 22 c-26 12 -49 23 -51 24 -2 1 6 20 17 43 35 67 24 128
-31 177 -21 19 -37 27 -88 39 -8 2 -33 -2 -55 -10z"/>
<path d="M1790 608 c-62 -17 -110 -78 -110 -138 0 -17 9 -49 21 -71 11 -23 19
-42 17 -43 -2 -1 -25 -12 -51 -24 l-49 -22 50 -55 c31 -34 57 -74 67 -105 l17
-50 180 0 181 0 -6 55 c-10 95 -69 170 -149 190 -16 4 -28 9 -28 11 0 1 10 19
21 39 67 112 -36 248 -161 213z"/>
</g>
</svg>
