<?xml version="1.0" standalone="no"?>
<!DOCTYPE svg PUBLIC "-//W3C//DTD SVG 20010904//EN"
 "http://www.w3.org/TR/2001/REC-SVG-20010904/DTD/svg10.dtd">
<svg version="1.0" xmlns="http://www.w3.org/2000/svg"
 width="880.000000pt" height="775.000000pt" viewBox="0 0 880.000000 775.000000"
 preserveAspectRatio="xMidYMid meet">

<g transform="translate(0.000000,775.000000) scale(0.100000,-0.100000)"
fill="#103153" stroke="none">
<path d="M5130 7323 c-53 -25 -2292 -2266 -2321 -2323 -15 -31 -24 -69 -27
-123 -4 -72 -2 -82 28 -143 75 -154 240 -211 390 -137 59 29 155 122 1018 985
523 525 952 959 952 966 0 6 6 12 12 12 7 0 451 -438 988 -974 1064 -1062
1016 -1019 1134 -1020 175 -1 307 127 308 299 1 134 73 55 -1180 1307 -772
771 -1140 1133 -1169 1147 -50 25 -86 26 -133 4z"/>
<path d="M4309 5426 c-758 -763 -877 -887 -887 -922 -14 -47 -15 -113 -4 -132
5 -7 60 -18 137 -27 334 -39 550 -105 870 -265 274 -137 324 -152 530 -155 83
-1 156 -3 163 -3 18 -3 42 -64 42 -106 0 -44 44 -100 60 -76 5 8 10 41 10 72
0 46 5 62 24 85 l24 28 229 0 c125 0 240 -3 255 -8 44 -12 59 -46 65 -145 3
-50 9 -96 13 -103 4 -6 75 -24 156 -39 424 -78 724 -186 921 -332 29 -21 55
-38 58 -38 3 0 5 277 5 615 0 544 -2 620 -16 648 -15 30 -1763 1789 -1774
1785 -3 0 -399 -397 -881 -882z m827 -859 c24 -28 24 -29 24 -273 l0 -245 -25
-24 -24 -25 -241 0 c-260 0 -291 5 -304 52 -3 13 -6 127 -6 253 0 247 3 264
54 285 11 5 128 8 259 7 l239 -2 24 -28z m670 0 c24 -28 24 -29 24 -273 l0
-245 -25 -25 -25 -25 -256 3 c-255 3 -256 3 -275 27 -18 21 -19 42 -19 265 0
259 3 275 54 296 11 5 128 8 259 7 l239 -2 24 -28z"/>
<path d="M805 4297 c-39 -18 -49 -40 -79 -185 -71 -337 -136 -808 -171 -1242
-32 -410 -39 -584 -40 -1012 l0 -447 26 -27 c33 -33 78 -38 489 -54 324 -13
337 -12 369 41 17 29 19 60 24 397 3 296 9 420 31 637 62 641 120 1160 157
1425 45 317 49 369 26 404 -24 36 -63 44 -292 55 -424 22 -508 23 -540 8z"/>
<path d="M3040 4119 c-295 -26 -643 -111 -980 -241 -58 -22 -113 -48 -124 -57
-47 -41 -43 -4 -136 -1131 -73 -876 -72 -865 -27 -895 12 -8 70 -21 127 -30
196 -29 350 -76 485 -149 33 -18 202 -111 375 -208 351 -195 922 -508 1370
-751 484 -262 494 -265 836 -231 186 18 280 33 739 119 435 82 532 99 740 130
343 53 529 118 692 243 471 360 751 592 921 760 99 98 125 131 157 195 52 106
58 191 21 294 l-27 72 27 42 c74 118 71 224 -9 315 -118 134 -311 163 -527 77
-168 -67 -274 -143 -465 -332 -154 -152 -263 -231 -399 -288 -107 -46 -199
-66 -451 -102 -341 -49 -530 -64 -700 -57 -266 10 -441 59 -714 199 -217 111
-311 148 -493 191 -161 39 -310 88 -315 102 -2 6 111 17 294 27 164 10 360 23
436 29 107 9 160 8 235 -1 133 -17 633 -100 1007 -167 364 -66 405 -67 505
-13 100 53 199 186 243 324 18 57 22 94 22 200 0 122 -2 134 -29 193 -69 150
-233 243 -617 352 -262 74 -478 111 -799 135 -404 31 -642 105 -930 288 -204
130 -528 264 -770 317 -218 49 -507 68 -720 49z"/>
</g>
</svg>
