<?xml version="1.0" standalone="no"?>
<!DOCTYPE svg PUBLIC "-//W3C//DTD SVG 20010904//EN"
 "http://www.w3.org/TR/2001/REC-SVG-20010904/DTD/svg10.dtd">
<svg version="1.0" xmlns="http://www.w3.org/2000/svg"
 width="225.000000pt" height="225.000000pt" viewBox="0 0 225.000000 225.000000"
 preserveAspectRatio="xMidYMid meet">
<metadata>
Created by potrace 1.16, written by Peter Selinger 2001-2019
</metadata>
<g transform="translate(0.000000,225.000000) scale(0.100000,-0.100000)"
fill="#103153" stroke="none">
<path d="M808 2240 c-72 -21 -128 -99 -128 -175 0 -88 72 -170 159 -182 84
-11 177 51 200 134 13 47 13 49 1 95 -28 98 -135 157 -232 128z"/>
<path d="M1422 2008 c-9 -9 -12 -75 -12 -232 l-1 -221 -44 -32 c-24 -18 -47
-33 -50 -33 -3 0 -5 37 -5 83 0 97 -19 147 -73 194 -20 18 -53 37 -74 42 -53
15 -560 14 -604 0 -51 -18 -97 -55 -122 -102 -21 -41 -22 -52 -25 -375 l-3
-334 -53 -51 c-77 -76 -79 -90 -50 -353 13 -120 25 -223 28 -231 4 -10 40 -13
161 -13 152 0 156 1 165 23 17 42 51 439 41 475 -15 51 -49 99 -85 121 l-32
20 4 313 c2 174 8 317 13 323 23 24 29 -34 29 -301 l0 -282 25 -16 c65 -43
113 -120 121 -194 3 -26 -6 -145 -19 -265 -27 -240 -35 -263 -95 -282 l-32 -9
0 -103 c0 -120 11 -147 69 -164 30 -9 44 -8 74 5 67 27 67 30 67 521 l0 436
23 -3 22 -3 3 -448 c2 -496 1 -485 68 -507 47 -16 100 2 125 44 18 30 19 60
19 804 0 731 1 773 18 770 15 -3 18 -22 22 -186 5 -181 5 -183 30 -202 43 -34
79 -26 160 35 40 30 75 55 77 55 2 0 3 -242 2 -537 l0 -538 -62 -29 c-68 -33
-157 -114 -157 -145 0 -11 7 -27 15 -35 34 -33 95 -39 425 -39 375 -1 366 -3
281 85 l-50 53 -73 1 c-98 2 -98 2 -98 18 0 43 -99 106 -167 106 l-23 0 0 569
0 568 34 24 c60 41 73 102 31 144 -13 14 -33 25 -45 25 -19 0 -20 5 -20 191 0
112 -4 198 -10 210 -12 21 -50 25 -68 7z m-987 -1118 c26 -28 97 -28 124 2 17
18 23 19 36 8 20 -17 45 -64 45 -85 0 -13 -21 -15 -146 -15 l-146 0 7 27 c7
30 42 83 54 83 4 0 16 -9 26 -20z"/>
</g>
</svg>
