<?xml version="1.0" standalone="no"?>
<!DOCTYPE svg PUBLIC "-//W3C//DTD SVG 20010904//EN"
 "http://www.w3.org/TR/2001/REC-SVG-20010904/DTD/svg10.dtd">
<svg version="1.0" xmlns="http://www.w3.org/2000/svg"
 width="200.000000pt" height="200.000000pt" viewBox="0 0 200.000000 200.000000"
 preserveAspectRatio="xMidYMid meet">
<metadata>
Created by potrace 1.16, written by Peter Selinger 2001-2019
</metadata>
<g transform="translate(0.000000,200.000000) scale(0.100000,-0.100000)"
fill="#103153" stroke="none">
<path d="M954 1799 c-33 -12 -74 -31 -89 -43 l-29 -23 56 -25 c136 -63 209
-209 174 -348 -26 -99 -103 -189 -184 -214 -34 -11 -22 -28 39 -52 82 -33 76
-50 -19 -58 -142 -11 -267 -57 -364 -130 l-46 -35 54 142 c30 78 54 147 54
154 0 6 -13 21 -30 33 -16 12 -30 25 -30 29 0 3 13 15 30 24 29 17 30 17 67
-7 120 -79 281 -37 339 87 53 114 16 240 -89 301 -161 93 -358 -29 -345 -214
5 -72 -10 -85 -94 -81 -106 4 -218 -78 -218 -162 0 -17 -12 -32 -40 -51 -31
-20 -40 -33 -40 -54 0 -59 42 -67 110 -22 24 16 45 28 46 27 2 -1 -44 -140
-102 -307 -119 -345 -128 -392 -92 -459 32 -60 94 -94 159 -88 82 7 106 30
219 218 57 94 106 166 108 159 4 -12 -12 -234 -24 -348 l-6 -52 496 0 496 0 1
58 c1 31 4 86 8 122 l6 65 25 -122 24 -123 154 0 c141 0 153 1 148 18 -3 9
-31 113 -61 231 -65 250 -70 263 -131 348 -87 123 -223 203 -389 231 -79 14
-95 19 -95 35 0 11 15 24 43 36 111 48 211 185 223 306 18 172 -105 348 -278
400 -75 22 -208 19 -284 -6z m-116 -256 c31 -19 62 -72 62 -106 0 -134 -183
-176 -245 -57 -58 113 75 231 183 163z"/>
</g>
</svg>
