<?xml version="1.0" standalone="no"?>
<!DOCTYPE svg PUBLIC "-//W3C//DTD SVG 20010904//EN"
 "http://www.w3.org/TR/2001/REC-SVG-20010904/DTD/svg10.dtd">
<svg version="1.0" xmlns="http://www.w3.org/2000/svg"
 width="1000.000000pt" height="1080.000000pt" viewBox="0 0 1000.000000 1080.000000"
 preserveAspectRatio="xMidYMid meet">
<metadata>
Created by potrace 1.16, written by Peter Selinger 2001-2019
</metadata>
<g transform="translate(0.000000,1080.000000) scale(0.100000,-0.100000)"
fill="#103153" stroke="none">
<path d="M4795 10138 c-206 -131 -445 -281 -1795 -1133 -487 -306 -986 -621
-1109 -699 l-224 -141 1661 -3 c914 -1 2410 -1 3324 0 l1663 3 -1662 1048
c-914 576 -1663 1047 -1665 1046 -2 0 -88 -55 -193 -121z m573 -420 c732 -462
1018 -642 1632 -1028 344 -216 632 -399 640 -406 12 -12 -406 -14 -2650 -13
-2510 0 -2664 1 -2641 17 72 51 2628 1660 2639 1661 7 1 178 -103 380 -231z"/>
<path d="M4890 9274 c-111 -30 -206 -109 -257 -212 -26 -52 -28 -67 -28 -167
0 -98 3 -116 27 -167 75 -161 254 -258 421 -228 317 58 442 446 216 672 -100
100 -242 139 -379 102z"/>
<path d="M1343 8700 c-18 -10 -39 -30 -47 -43 -16 -23 -236 -484 -236 -492 0
-3 88 -5 195 -5 l195 0 347 219 c192 121 391 247 443 280 l95 61 -480 0 c-458
0 -481 -1 -512 -20z"/>
<path d="M7651 8716 c2 -2 201 -128 442 -280 l438 -276 195 0 c107 0 194 3
194 8 0 4 -50 113 -111 242 -84 178 -121 244 -150 273 l-38 37 -487 0 c-268 0
-485 -2 -483 -4z"/>
<path d="M862 8041 c-9 -5 -12 -31 -10 -92 l3 -84 4134 -3 c3301 -2 4136 0
4143 10 12 21 9 153 -4 166 -9 9 -941 12 -4132 12 -2267 0 -4127 -4 -4134 -9z"/>
<path d="M980 7565 l0 -185 4015 0 4015 0 -2 183 -3 182 -4012 3 -4013 2 0
-185z"/>
<path d="M832 7118 l3 -143 4149 -3 c3059 -1 4152 1 4162 9 11 9 14 45 14 145
l0 134 -4165 0 -4166 0 3 -142z"/>
<path d="M982 6778 l3 -83 38 -3 37 -3 0 -80 0 -79 480 0 480 0 0 79 0 80 38
3 37 3 3 83 3 82 -561 0 -561 0 3 -82z"/>
<path d="M2612 6778 l3 -83 37 -3 37 -3 3 -77 3 -77 480 0 480 0 3 77 3 77 37
3 37 3 3 83 3 82 -566 0 -566 0 3 -82z"/>
<path d="M6240 6781 c0 -86 4 -91 61 -91 l29 0 0 -80 0 -80 480 0 480 0 0 79
0 80 38 3 37 3 3 83 3 82 -566 0 -565 0 0 -79z"/>
<path d="M7882 6778 l3 -83 38 -3 37 -3 0 -80 0 -79 480 0 480 0 0 80 0 80 29
0 c57 0 61 5 61 91 l0 79 -565 0 -566 0 3 -82z"/>
<path d="M1140 4285 l0 -2125 403 2 402 3 3 2123 2 2122 -405 0 -405 0 0
-2125z m308 3 l-3 -1973 -57 -3 -58 -3 0 1976 0 1975 60 0 60 0 -2 -1972z
m302 -3 l0 -1975 -55 0 -55 0 0 1975 0 1975 55 0 55 0 0 -1975z"/>
<path d="M2770 4285 l0 -2125 405 0 405 0 0 2125 0 2125 -405 0 -405 0 0
-2125z m310 0 l0 -1975 -60 0 -60 0 0 1975 0 1975 60 0 60 0 0 -1975z m310 0
l0 -1975 -60 0 -60 0 0 1975 0 1975 60 0 60 0 0 -1975z"/>
<path d="M6402 4288 l3 -2123 403 -3 402 -2 0 2125 0 2125 -405 0 -405 0 2
-2122z m308 -3 l0 -1975 -60 0 -60 0 0 1975 0 1975 60 0 60 0 0 -1975z m310 0
l0 -1976 -57 3 -58 3 -3 1973 -2 1972 60 0 60 0 0 -1975z"/>
<path d="M8040 4285 l0 -2125 400 0 400 0 0 2125 0 2125 -400 0 -400 0 0
-2125z m300 0 l0 -1975 -55 0 -55 0 0 1975 0 1975 55 0 55 0 0 -1975z m318 3
l-3 -1973 -57 -3 -58 -3 0 1976 0 1975 60 0 60 0 -2 -1972z"/>
<path d="M4900 5959 c-338 -32 -642 -261 -769 -581 -70 -173 -65 -29 -68
-1935 l-3 -1723 930 0 930 0 -3 1733 c-3 1730 -3 1732 -24 1802 -58 192 -119
300 -242 428 -192 200 -471 303 -751 276z m270 -285 c177 -53 334 -185 414
-348 60 -123 68 -166 73 -423 l5 -233 -666 0 -666 0 0 228 c0 260 6 298 72
432 59 121 178 241 298 298 47 22 117 48 155 56 85 19 235 14 315 -10z m-108
-1181 c17 -15 18 -69 18 -1290 0 -859 -3 -1281 -10 -1294 -9 -16 -22 -19 -80
-19 -59 0 -71 3 -80 20 -7 13 -9 420 -8 1293 3 1062 5 1277 17 1290 19 23 117
23 143 0z"/>
<path d="M1067 2043 c-4 -3 -7 -42 -7 -85 l0 -78 -40 0 -40 0 0 -80 0 -80 560
0 560 0 0 80 0 80 -40 0 -40 0 0 85 0 85 -473 0 c-261 0 -477 -3 -480 -7z"/>
<path d="M2697 2043 c-4 -3 -7 -42 -7 -85 l0 -78 -40 0 -40 0 0 -80 0 -80 565
0 565 0 0 80 0 80 -40 0 -39 0 -3 83 -3 82 -476 3 c-261 1 -479 -1 -482 -5z"/>
<path d="M6328 1968 l-3 -83 -42 -3 -43 -3 0 -80 0 -79 565 0 565 0 0 80 0 80
-40 0 -39 0 -3 83 -3 82 -477 3 -477 2 -3 -82z"/>
<path d="M7967 2043 c-4 -3 -7 -42 -7 -85 l0 -78 -40 0 -40 0 0 -80 0 -80 565
0 566 0 -3 78 -3 77 -40 5 -40 5 -3 83 -3 82 -473 0 c-260 0 -476 -3 -479 -7z"/>
<path d="M830 1455 l0 -145 4165 0 4166 0 -3 143 -3 142 -4162 3 -4163 2 0
-145z"/>
<path d="M0 400 l0 -400 5000 0 5000 0 0 400 0 400 -5000 0 -5000 0 0 -400z
m1395 106 c25 -11 33 -19 29 -30 -7 -19 -5 -19 -40 -1 -36 18 -55 19 -78 2
-28 -21 -9 -45 49 -62 87 -25 108 -74 54 -127 -29 -29 -33 -30 -90 -25 -68 6
-72 8 -64 29 5 13 12 14 40 5 50 -15 100 1 100 33 0 16 -8 28 -25 36 -87 40
-105 51 -108 67 -14 70 53 106 133 73z m587 -48 l3 -62 36 32 c20 18 45 32 55
32 14 0 9 -9 -21 -40 l-39 -40 42 -60 c40 -57 41 -60 20 -60 -16 0 -32 14 -53
45 -16 25 -33 45 -37 45 -5 0 -8 -20 -8 -45 0 -38 -3 -45 -20 -45 -19 0 -20 7
-20 130 0 122 1 130 20 130 16 0 19 -8 22 -62z m-1353 -24 c12 -15 21 -40 21
-55 0 -29 0 -29 -65 -29 -72 0 -83 -12 -44 -51 17 -17 30 -20 65 -16 43 4 59
-5 28 -17 -45 -17 -106 3 -123 41 -45 98 56 206 118 127z m456 3 c20 -16 28
-35 32 -69 5 -42 3 -50 -25 -78 -41 -41 -83 -41 -124 0 -28 28 -30 36 -25 78
9 82 84 119 142 69z m622 8 c30 -21 44 -75 32 -120 -25 -88 -143 -88 -168 0
-20 72 20 135 84 135 17 0 40 -7 52 -15z"/>
<path d="M986 424 c-50 -50 -21 -144 44 -144 48 0 80 50 66 104 -13 53 -75 75
-110 40z"/>
</g>
</svg>
