<?xml version="1.0" standalone="no"?>
<!DOCTYPE svg PUBLIC "-//W3C//DTD SVG 20010904//EN"
 "http://www.w3.org/TR/2001/REC-SVG-20010904/DTD/svg10.dtd">
<svg version="1.0" xmlns="http://www.w3.org/2000/svg"
 width="128.000000pt" height="128.000000pt" viewBox="0 0 128.000000 128.000000"
 preserveAspectRatio="xMidYMid meet">
<metadata>
Created by potrace 1.16, written by Peter Selinger 2001-2019
</metadata>
<g transform="translate(0.000000,128.000000) scale(0.100000,-0.100000)"
fill="#103153" stroke="none">
<path d="M342 1200 c-18 -11 -40 -36 -49 -55 -9 -19 -23 -35 -30 -35 -7 0 -13
-9 -13 -20 0 -11 6 -20 13 -20 7 0 21 -16 30 -35 20 -42 70 -75 115 -75 l32 0
-52 -67 c-28 -38 -52 -69 -53 -70 0 -1 -36 7 -80 18 -43 11 -88 18 -99 15 -17
-4 -21 -1 -21 17 1 12 7 32 13 44 17 32 15 57 -9 87 -25 32 -50 30 -60 -4 -7
-24 -7 -24 -8 -2 -1 31 -27 39 -52 16 -17 -16 -20 -26 -14 -64 9 -60 9 -254 0
-308 -6 -34 -4 -47 10 -62 27 -30 55 -26 56 8 1 20 2 22 6 7 7 -29 18 -38 41
-31 32 10 48 61 33 103 -7 19 -11 37 -8 39 3 3 44 -4 92 -15 114 -28 143 -27
175 4 l26 25 33 -76 32 -76 -43 -37 c-69 -58 -87 -78 -93 -103 -3 -12 7 -73
23 -135 l29 -112 -31 -12 c-45 -18 -66 -39 -66 -65 0 -35 29 -44 135 -44 89 0
98 2 120 25 33 33 32 68 -7 179 l-32 91 50 47 49 47 12 -45 c6 -25 18 -53 27
-63 8 -9 67 -39 131 -66 l115 -49 0 -58 c0 -50 3 -60 25 -74 40 -26 65 -2 99
97 31 88 35 125 13 146 -11 11 8 34 105 130 65 64 118 124 118 133 0 17 -179
200 -196 200 -5 0 -28 -18 -49 -40 -21 -22 -42 -40 -45 -40 -3 0 -10 10 -15
22 -6 12 -52 57 -102 101 l-93 79 -130 33 c-72 19 -138 31 -148 28 -13 -5 -12
-1 6 19 52 57 46 135 -14 187 -42 38 -101 42 -152 11z m453 -490 c45 -38 91
-70 101 -70 15 0 11 -8 -18 -35 -21 -20 -38 -41 -38 -48 0 -8 40 -53 89 -101
49 -48 86 -86 82 -84 -4 2 -49 21 -98 43 l-91 40 -26 87 c-15 48 -42 121 -61
162 -19 42 -32 76 -28 76 3 0 43 -31 88 -70z"/>
</g>
</svg>
