<?xml version="1.0" standalone="no"?>
<!DOCTYPE svg PUBLIC "-//W3C//DTD SVG 20010904//EN"
 "http://www.w3.org/TR/2001/REC-SVG-20010904/DTD/svg10.dtd">
<svg version="1.0" xmlns="http://www.w3.org/2000/svg"
 width="325.000000pt" height="325.000000pt" viewBox="0 0 325.000000 325.000000"
 preserveAspectRatio="xMidYMid meet">
<metadata>
Created by potrace 1.16, written by Peter Selinger 2001-2019
</metadata>
<g transform="translate(0.000000,325.000000) scale(0.100000,-0.100000)"
fill="#103153" stroke="none">
<path d="M1535 3231 c-99 -32 -175 -137 -175 -241 0 -61 32 -135 79 -181 56
-57 107 -73 204 -66 82 5 136 38 179 107 107 174 -8 392 -206 389 -34 -1 -70
-4 -81 -8z"/>
<path d="M1179 2803 c-115 -19 -262 -66 -325 -104 -74 -44 -191 -158 -237
-232 -123 -194 -207 -440 -240 -705 l-4 -32 86 -26 c47 -14 106 -32 130 -40
64 -20 71 -19 71 19 0 83 73 303 117 353 18 20 73 60 73 53 0 -2 -52 -157
-114 -344 -62 -187 -111 -343 -109 -347 2 -5 71 -8 153 -8 122 0 151 -3 164
-16 14 -13 16 -57 16 -329 0 -313 0 -314 -22 -329 -18 -13 -53 -16 -175 -16
l-153 0 0 -39 c0 -75 -66 -463 -105 -613 l-7 -28 383 0 384 0 -68 63 -68 62
10 220 c6 121 14 303 18 405 6 177 7 183 20 140 92 -301 132 -489 160 -743
l18 -167 26 0 c20 0 596 65 734 83 14 1 -3 15 -55 44 -41 23 -83 48 -93 55
-11 9 -44 107 -96 288 -111 389 -170 560 -244 719 -21 45 -23 57 -13 65 8 6
22 47 31 91 30 136 206 755 221 773 1 2 38 -26 81 -62 43 -37 118 -86 168
-111 106 -53 345 -120 501 -140 l52 -7 51 108 c28 58 51 108 51 109 0 2 -24
11 -52 20 -109 36 -391 182 -459 238 -109 90 -224 237 -292 373 -28 55 -81
107 -104 102 -8 -2 -35 -50 -60 -108 -123 -285 -221 -495 -282 -604 -87 -156
-135 -229 -127 -196 4 14 22 88 42 165 46 184 70 301 94 464 11 73 20 136 19
140 0 3 -24 -75 -53 -174 -59 -202 -123 -385 -167 -478 l-29 -62 5 55 c17 195
26 445 23 635 l-3 220 -35 5 c-19 3 -69 0 -111 -7z"/>
<path d="M2900 2026 l-65 -34 -52 -112 -52 -111 52 -24 c55 -25 185 -55 238
-55 21 0 32 6 36 18 2 10 14 22 26 27 14 7 23 20 25 40 2 27 -6 36 -88 94 -49
36 -90 67 -90 70 0 3 16 22 36 42 27 28 34 42 29 58 -8 28 -18 26 -95 -13z"/>
<path d="M376 1652 c-10 -32 -9 -176 1 -202 17 -41 63 -80 94 -80 20 0 38 12
67 45 27 31 45 43 56 39 14 -5 16 2 15 47 -2 97 -3 99 -114 136 -55 18 -102
33 -106 33 -4 0 -10 -8 -13 -18z"/>
<path d="M164 1306 c-18 -13 -19 -30 -22 -246 -3 -198 -1 -235 13 -256 l15
-24 353 0 c261 0 356 3 365 12 9 9 12 79 12 254 0 240 0 243 -22 258 -32 23
-683 24 -714 2z"/>
</g>
</svg>
