<?xml version="1.0" standalone="no"?>
<!DOCTYPE svg PUBLIC "-//W3C//DTD SVG 20010904//EN"
 "http://www.w3.org/TR/2001/REC-SVG-20010904/DTD/svg10.dtd">
<svg version="1.0" xmlns="http://www.w3.org/2000/svg"
 width="1000.000000pt" height="1080.000000pt" viewBox="0 0 1000.000000 1080.000000"
 preserveAspectRatio="xMidYMid meet">
<metadata>
Created by potrace 1.16, written by Peter Selinger 2001-2019
</metadata>
<g transform="translate(0.000000,1080.000000) scale(0.100000,-0.100000)"
fill="#103153" stroke="none">
<path d="M6265 9536 c-37 -17 -70 -52 -84 -89 -7 -17 -11 -109 -11 -223 l0
-194 -1392 0 c-1372 0 -1393 0 -1426 -20 -100 -61 -95 -204 8 -257 35 -18 61
-23 127 -23 l83 0 0 -354 c0 -350 0 -353 23 -386 63 -94 193 -97 261 -7 20 27
21 40 24 388 l3 359 2444 0 2445 0 0 -1705 0 -1705 -2445 0 -2445 0 0 473 c0
471 0 473 -22 517 -31 58 -76 83 -146 77 -61 -4 -99 -28 -124 -78 -16 -31 -18
-77 -18 -519 l0 -485 -45 -24 c-56 -29 -110 -88 -139 -150 -18 -41 -21 -67
-24 -228 -3 -148 0 -193 13 -240 29 -99 100 -174 198 -207 43 -14 174 -16
1322 -16 l1275 0 0 -650 0 -651 -335 -404 c-184 -223 -344 -420 -355 -437 -55
-91 14 -217 121 -221 83 -3 95 8 337 300 l227 275 5 -179 c6 -203 14 -229 80
-263 72 -37 158 -18 203 44 20 29 22 45 27 216 l5 185 218 -265 c120 -146 234
-276 253 -289 71 -49 182 -22 218 53 21 45 21 115 -1 146 -10 14 -169 209
-355 433 l-338 408 0 650 0 649 1293 2 1292 3 49 24 c63 31 116 84 147 147 22
46 24 62 27 241 4 237 -4 275 -77 355 -28 30 -68 63 -90 73 l-41 18 0 1714 0
1713 83 0 c99 0 157 23 187 72 42 69 17 165 -52 208 -33 20 -54 20 -1425 20
l-1393 0 0 204 c0 194 -1 204 -22 236 -13 18 -35 42 -49 53 -34 25 -105 31
-144 13z m2715 -4656 l0 -140 -2655 0 -2655 0 0 140 0 140 2655 0 2655 0 0
-140z"/>
<path d="M2021 9429 c-294 -58 -543 -273 -635 -549 -175 -527 228 -1070 794
-1070 161 0 337 51 466 136 85 55 204 178 254 263 99 166 137 358 108 537 -28
170 -94 304 -211 430 -117 126 -273 214 -439 248 -83 17 -262 20 -337 5z m294
-304 c184 -48 336 -203 380 -386 78 -332 -198 -649 -545 -626 -393 25 -620
440 -424 774 61 105 200 208 320 237 79 19 196 19 269 1z"/>
<path d="M1100 7584 c-82 -21 -208 -87 -267 -139 -64 -56 -143 -172 -174 -256
l-24 -64 -3 -1205 c-2 -1178 -2 -1206 17 -1270 25 -81 83 -173 142 -223 106
-91 260 -132 392 -105 37 8 69 12 72 10 3 -3 5 -418 5 -922 0 -1009 -3 -959
62 -1083 41 -76 152 -181 233 -218 68 -32 177 -59 240 -59 111 0 260 55 343
125 l42 37 43 -37 c57 -49 148 -92 232 -110 88 -18 132 -18 218 0 193 41 339
167 406 348 l26 72 3 2107 2 2107 753 3 c738 3 753 4 814 25 128 43 231 133
286 251 30 63 32 74 32 178 0 107 -1 112 -37 185 -61 121 -153 201 -277 239
-62 20 -101 20 -1795 19 -1473 0 -1739 -2 -1786 -15z m3518 -304 c95 -58 95
-198 -1 -252 -17 -10 -199 -14 -797 -18 -718 -5 -778 -7 -822 -24 -63 -23
-141 -94 -170 -154 l-23 -47 -5 -880 -5 -880 -615 0 -615 0 -5 900 c-5 851 -6
902 -23 929 -20 31 -88 66 -127 66 -42 0 -108 -37 -130 -72 -20 -33 -20 -48
-20 -1048 0 -573 -4 -1032 -10 -1054 -18 -78 -78 -128 -155 -128 -57 0 -104
28 -133 81 l-22 39 2 1174 3 1173 22 40 c39 74 122 141 203 166 14 4 788 8
1720 8 1674 1 1695 1 1728 -19z m-1818 -3641 c0 -792 -3 -1092 -12 -1120 -22
-76 -103 -147 -186 -162 -79 -15 -181 31 -229 105 l-28 42 -5 780 c-5 758 -6
782 -25 815 -29 49 -67 73 -122 78 -55 5 -105 -17 -138 -61 -20 -27 -20 -43
-25 -809 -5 -781 -5 -782 -27 -823 -49 -92 -155 -145 -248 -124 -83 19 -132
56 -171 130 -18 33 -19 84 -22 1133 l-2 1097 620 0 620 0 0 -1081z"/>
<path d="M0 400 l0 -400 5000 0 5000 0 0 400 0 400 -5000 0 -5000 0 0 -400z
m1395 106 c25 -11 33 -19 29 -30 -7 -19 -5 -19 -40 -1 -36 18 -55 19 -78 2
-28 -21 -9 -45 49 -62 87 -25 108 -74 54 -127 -29 -29 -33 -30 -90 -25 -68 6
-72 8 -64 29 5 13 12 14 40 5 50 -15 100 1 100 33 0 16 -8 28 -25 36 -87 40
-105 51 -108 67 -14 70 53 106 133 73z m587 -48 l3 -62 36 32 c20 18 45 32 55
32 14 0 9 -9 -21 -40 l-39 -40 42 -60 c40 -57 41 -60 20 -60 -16 0 -32 14 -53
45 -16 25 -33 45 -37 45 -5 0 -8 -20 -8 -45 0 -38 -3 -45 -20 -45 -19 0 -20 7
-20 130 0 122 1 130 20 130 16 0 19 -8 22 -62z m-1353 -24 c12 -15 21 -40 21
-55 0 -29 0 -29 -65 -29 -72 0 -83 -12 -44 -51 17 -17 30 -20 65 -16 43 4 59
-5 28 -17 -45 -17 -106 3 -123 41 -45 98 56 206 118 127z m456 3 c20 -16 28
-35 32 -69 5 -42 3 -50 -25 -78 -41 -41 -83 -41 -124 0 -28 28 -30 36 -25 78
9 82 84 119 142 69z m622 8 c30 -21 44 -75 32 -120 -25 -88 -143 -88 -168 0
-20 72 20 135 84 135 17 0 40 -7 52 -15z"/>
<path d="M986 424 c-50 -50 -21 -144 44 -144 48 0 80 50 66 104 -13 53 -75 75
-110 40z"/>
</g>
</svg>
