<?xml version="1.0" standalone="no"?>
<!DOCTYPE svg PUBLIC "-//W3C//DTD SVG 20010904//EN"
 "http://www.w3.org/TR/2001/REC-SVG-20010904/DTD/svg10.dtd">
<svg version="1.0" xmlns="http://www.w3.org/2000/svg"
 width="820.000000pt" height="919.000000pt" viewBox="0 0 820.000000 919.000000"
 preserveAspectRatio="xMidYMid meet">
<metadata>
Created by potrace 1.16, written by Peter Selinger 2001-2019
</metadata>
<g transform="translate(0.000000,919.000000) scale(0.100000,-0.100000)"
fill="#103153" stroke="none">
<path d="M3100 8775 c-204 -46 -368 -209 -545 -540 -144 -270 -210 -330 -548
-501 -327 -165 -423 -235 -476 -347 -37 -79 -61 -170 -61 -236 l0 -51 1775 0
1775 0 0 33 c0 45 -35 174 -64 242 -30 66 -100 143 -180 198 -33 22 -143 80
-244 129 -229 111 -317 164 -399 242 -84 78 -135 150 -223 315 -92 172 -159
272 -231 343 -69 68 -175 133 -261 160 -84 26 -233 32 -318 13z m193 -444 c88
-21 167 -112 182 -207 18 -121 -73 -237 -202 -259 -100 -16 -223 58 -251 151
-30 100 -4 209 59 256 80 60 138 76 212 59z"/>
<path d="M464 7810 c-88 -6 -109 -12 -163 -40 -74 -40 -116 -86 -159 -175
l-32 -65 0 -3142 c1 -1729 5 -3227 9 -3329 7 -147 12 -193 27 -225 24 -51 118
-146 174 -174 l45 -23 930 -9 c511 -5 1527 -11 2258 -14 l1327 -6 93 -60 c233
-151 495 -251 781 -299 823 -138 1658 261 2076 992 121 211 212 458 242 659
21 136 17 600 -6 725 -40 221 -167 525 -304 730 -205 306 -496 560 -814 710
-124 58 -338 131 -462 156 -55 11 -102 22 -103 23 -2 2 -6 664 -9 1472 -5
1430 -12 1807 -35 1889 -15 57 -128 166 -189 184 -60 18 -390 30 -838 31
l-364 0 82 -77 c138 -129 199 -231 249 -412 l27 -96 232 -3 232 -2 0 -1495 c0
-822 -3 -1495 -6 -1495 -36 0 -229 -49 -335 -85 -666 -228 -1147 -755 -1324
-1454 -37 -147 -48 -293 -43 -549 5 -220 7 -231 41 -362 60 -232 159 -472 246
-600 l30 -45 -1841 -3 c-1013 -1 -1842 -1 -1842 0 -1 2 1 1371 4 3043 l5 3040
232 5 c127 3 233 7 236 10 3 3 14 43 26 90 37 148 90 239 213 366 59 61 108
114 108 118 0 8 -928 5 -1056 -4z m5960 -3974 c403 -94 779 -351 1007 -690
110 -164 181 -324 232 -525 31 -123 32 -131 32 -356 0 -330 -32 -482 -155
-730 -88 -178 -176 -301 -315 -440 -163 -164 -327 -275 -532 -361 -211 -89
-348 -109 -686 -101 -269 6 -322 15 -507 88 -328 128 -607 354 -796 644 -66
102 -105 180 -159 319 -73 186 -80 238 -80 571 0 286 0 291 27 386 106 369
322 688 615 908 193 145 454 259 685 300 86 16 550 6 632 -13z"/>
<path d="M6247 2623 l-557 -558 -228 228 -227 227 -218 -218 -217 -217 445
-445 445 -445 770 770 c424 423 770 775 770 780 0 6 -96 106 -213 223 l-212
212 -558 -557z"/>
<path d="M2042 5795 c-150 -146 -278 -265 -286 -265 -7 0 -61 46 -120 102
l-107 101 -100 -99 c-54 -54 -99 -103 -99 -108 0 -12 424 -436 436 -436 14 0
764 753 764 767 0 11 -198 203 -209 203 -3 0 -129 -120 -279 -265z"/>
<path d="M2913 5648 c-43 -46 -53 -70 -53 -126 0 -58 28 -106 80 -136 35 -21
45 -21 897 -21 l862 0 30 29 c40 38 61 85 61 136 0 52 -19 89 -64 123 l-35 27
-873 0 -874 0 -31 -32z"/>
<path d="M2033 4628 l-273 -272 -108 107 c-59 59 -112 107 -117 107 -6 0 -57
-47 -115 -105 l-105 -105 222 -222 223 -223 385 385 c212 212 385 389 385 395
0 16 -193 205 -209 205 -8 0 -137 -122 -288 -272z"/>
<path d="M3080 4511 c-82 -4 -144 -11 -157 -19 -35 -20 -63 -84 -63 -143 0
-50 2 -55 51 -102 l51 -49 712 5 c418 3 734 10 766 16 132 25 161 166 53 260
l-46 41 -616 -2 c-339 -1 -677 -4 -751 -7z"/>
<path d="M2037 3460 l-273 -269 -117 117 -117 117 -107 -108 -108 -107 223
-222 222 -223 380 380 c209 209 380 385 380 391 0 14 -186 194 -201 194 -5 0
-132 -121 -282 -270z"/>
<path d="M2901 3305 c-38 -41 -41 -49 -41 -100 0 -62 9 -86 48 -127 l26 -28
407 0 407 0 35 39 c62 68 62 154 0 222 l-35 39 -403 0 -402 0 -42 -45z"/>
</g>
</svg>
