<?xml version="1.0" standalone="no"?>
<!DOCTYPE svg PUBLIC "-//W3C//DTD SVG 20010904//EN"
 "http://www.w3.org/TR/2001/REC-SVG-20010904/DTD/svg10.dtd">
<svg version="1.0" xmlns="http://www.w3.org/2000/svg"
 width="1200.000000pt" height="1200.000000pt" viewBox="0 0 1200.000000 1200.000000"
 preserveAspectRatio="xMidYMid meet">

<g transform="translate(0.000000,1200.000000) scale(0.100000,-0.100000)"
fill="#103153" stroke="none">
<path d="M5735 10439 c-178 -26 -217 -33 -290 -51 -151 -37 -212 -59 -365
-135 -129 -63 -226 -127 -350 -231 -144 -120 -239 -222 -584 -627 -64 -76
-214 -226 -286 -286 -187 -158 -412 -269 -670 -330 -194 -47 -323 -60 -647
-66 l-313 -6 0 -381 c1 -469 15 -726 61 -1141 29 -265 60 -467 124 -810 26
-140 117 -506 177 -710 59 -205 207 -618 268 -750 11 -26 51 -117 76 -175 38
-88 208 -418 281 -545 143 -246 388 -599 553 -796 312 -372 710 -729 1105
-990 94 -63 216 -139 222 -139 4 0 14 -6 22 -14 27 -23 278 -154 421 -219 140
-64 301 -123 405 -147 73 -17 86 -17 149 -4 66 14 218 62 281 89 17 8 64 28
105 45 269 112 633 325 913 534 281 208 642 547 853 801 324 390 634 882 824
1310 12 28 28 64 35 80 8 17 33 75 56 130 22 55 50 120 60 144 11 24 19 48 19
53 0 6 7 24 15 41 15 35 26 65 84 237 75 226 132 428 185 660 15 63 31 133 37
155 19 78 74 383 99 560 39 267 59 474 90 910 16 229 21 562 14 837 l-7 258
-146 0 c-573 1 -892 53 -1186 195 -112 54 -262 149 -325 205 -113 101 -241
235 -330 344 -206 252 -400 460 -523 561 -27 22 -55 45 -62 52 -7 6 -51 37
-98 67 -219 143 -444 229 -692 266 -44 6 -107 15 -141 21 -74 11 -436 10 -519
-2z m640 -678 c136 -29 214 -56 315 -108 177 -93 301 -207 559 -513 91 -107
241 -272 335 -365 167 -167 247 -234 399 -334 75 -50 290 -162 337 -176 14 -4
30 -11 35 -15 19 -14 169 -61 299 -95 72 -18 203 -43 291 -55 88 -12 175 -24
194 -27 l34 -4 -6 -97 c-27 -425 -38 -571 -42 -597 -3 -17 -14 -105 -25 -195
-35 -302 -81 -575 -143 -855 -49 -222 -177 -676 -216 -770 -5 -11 -26 -67 -46
-125 -228 -639 -590 -1261 -1012 -1740 -381 -431 -740 -720 -1183 -952 -112
-59 -342 -163 -427 -193 l-51 -18 -84 33 c-258 103 -563 274 -838 470 -52 38
-221 170 -255 201 -233 208 -375 348 -500 494 -33 39 -62 72 -65 75 -17 16
-99 121 -177 225 -261 350 -501 780 -676 1210 -122 301 -228 632 -301 935 -58
246 -102 463 -121 600 -3 25 -10 68 -16 95 -40 216 -83 674 -95 1006 l-7 196
24 6 c13 4 39 7 56 7 46 0 271 37 378 62 425 98 771 285 1075 582 129 126 191
192 378 412 88 104 185 215 215 246 205 213 403 326 663 377 137 28 162 29
394 26 161 -3 227 -8 305 -24z"/>
</g>
</svg>
