<?xml version="1.0" standalone="no"?>
<!DOCTYPE svg PUBLIC "-//W3C//DTD SVG 20010904//EN"
 "http://www.w3.org/TR/2001/REC-SVG-20010904/DTD/svg10.dtd">
<svg version="1.0" xmlns="http://www.w3.org/2000/svg"
 width="200.000000pt" height="200.000000pt" viewBox="0 0 200.000000 200.000000"
 preserveAspectRatio="xMidYMid meet">
<metadata>
Created by potrace 1.16, written by Peter Selinger 2001-2019
</metadata>
<g transform="translate(0.000000,200.000000) scale(0.100000,-0.100000)"
fill="#103153" stroke="none">
<path d="M313 1925 c-83 -36 -97 -166 -23 -218 20 -14 20 -14 -5 -268 -29
-302 -30 -309 -10 -309 12 0 15 -16 15 -80 0 -74 3 -87 39 -159 22 -43 47 -81
56 -85 23 -9 268 -7 281 2 6 4 30 43 52 87 39 74 42 87 42 158 0 64 3 77 16
77 14 0 15 8 10 53 -3 28 -15 154 -27 279 l-21 228 26 31 c32 37 40 68 33 116
-13 75 -94 119 -167 90 -22 -8 -42 -12 -45 -7 -10 16 -74 21 -107 7 -27 -11
-38 -11 -63 -1 -39 17 -62 17 -102 -1z m100 -89 l31 -35 31 36 c26 30 35 35
58 29 15 -3 33 -19 42 -36 19 -37 28 -38 43 -5 29 63 117 49 110 -18 -2 -23
-11 -35 -33 -47 -16 -8 -30 -15 -31 -15 0 0 11 -123 25 -272 l27 -273 -194 0
-193 0 6 48 c10 85 45 456 45 477 0 13 -12 25 -33 35 -42 20 -50 70 -15 94 33
23 47 20 81 -18z m277 -777 c0 -62 -4 -80 -32 -130 l-33 -59 -102 0 -103 0
-35 70 c-28 56 -35 81 -35 130 l0 60 170 0 170 0 0 -71z"/>
<path d="M427 1683 c-4 -3 -7 -100 -7 -215 0 -184 2 -209 16 -215 9 -3 24 -2
33 4 14 9 16 38 19 199 3 217 1 234 -32 234 -12 0 -26 -3 -29 -7z"/>
<path d="M567 1684 c-4 -4 -7 -101 -7 -216 0 -184 2 -209 16 -215 9 -3 24 -2
33 4 14 9 16 38 16 219 l0 209 -25 3 c-14 2 -29 0 -33 -4z"/>
<path d="M1371 1329 c-58 -27 -107 -52 -110 -55 -10 -10 -19 -239 -10 -248 5
-6 9 -21 9 -35 1 -15 20 -62 43 -106 l42 -80 152 -3 153 -3 44 93 c24 51 48
108 54 126 13 41 3 248 -12 261 -21 17 -224 101 -242 100 -11 0 -66 -23 -123
-50z m216 -261 c59 -24 83 -38 83 -50 0 -10 -14 -47 -32 -83 l-32 -65 -108 0
-108 0 -30 60 c-44 87 -42 91 48 133 42 20 81 36 87 37 5 0 47 -15 92 -32z"/>
<path d="M93 768 c-5 -7 -17 -65 -27 -129 l-17 -116 62 -224 c33 -123 66 -230
71 -236 15 -19 681 -19 695 0 6 6 35 114 65 238 l54 226 -12 117 c-7 64 -16
120 -19 126 -10 16 -860 14 -872 -2z m627 -353 l0 -295 -245 0 -244 0 -12 43
c-6 23 -31 115 -55 204 -43 160 -44 164 -33 240 6 43 12 84 14 91 3 9 70 12
290 12 l285 0 0 -295z m198 208 c9 -87 9 -90 -42 -295 -42 -173 -54 -208 -68
-208 -17 0 -18 19 -18 295 l0 295 59 0 59 0 10 -87z"/>
<path d="M1056 763 c-3 -10 -12 -70 -21 -133 l-15 -115 63 -230 63 -230 352
-3 c327 -2 352 -1 360 15 5 10 33 116 63 235 l53 217 -12 121 c-7 67 -15 126
-18 131 -3 5 -198 9 -444 9 -409 0 -439 -1 -444 -17z m694 -56 c0 -6 -242
-463 -249 -470 -4 -4 -41 57 -82 135 l-75 143 71 19 c73 19 67 19 213 -12 21
-4 22 -2 22 77 0 93 4 90 -94 65 -57 -14 -68 -14 -123 0 -95 25 -92 27 -95
-58 l-3 -74 -47 89 -46 89 254 0 c140 0 254 -1 254 -3z"/>
</g>
</svg>
