<?xml version="1.0" standalone="no"?>
<!DOCTYPE svg PUBLIC "-//W3C//DTD SVG 20010904//EN"
 "http://www.w3.org/TR/2001/REC-SVG-20010904/DTD/svg10.dtd">
<svg version="1.0" xmlns="http://www.w3.org/2000/svg"
 width="512.000000pt" height="512.000000pt" viewBox="0 0 512.000000 512.000000"
 preserveAspectRatio="xMidYMid meet">
<metadata>
Created by potrace 1.16, written by Peter Selinger 2001-2019
</metadata>
<g transform="translate(0.000000,512.000000) scale(0.100000,-0.100000)"
fill="#103153" stroke="none">
<path d="M429 4724 c-28 -42 -47 -79 -42 -83 4 -4 179 -119 388 -256 209 -136
394 -258 411 -270 28 -22 31 -30 48 -144 l18 -121 100 0 100 0 -6 28 c-3 15
-17 97 -31 182 -15 85 -29 158 -33 161 -20 19 -883 579 -891 579 -6 0 -33 -34
-62 -76z"/>
<path d="M442 3787 c-12 -13 -24 -37 -28 -54 l-6 -31 -129 -4 c-116 -3 -131
-5 -150 -25 -25 -25 -57 -137 -66 -234 -5 -64 -5 -65 26 -92 l33 -27 1283 0
1283 0 33 27 c31 27 31 28 26 92 -9 97 -41 209 -66 234 -19 20 -34 22 -150 25
l-129 4 -6 31 c-4 17 -16 41 -28 54 l-21 23 -942 0 -942 0 -21 -23z m1794
-212 c7 -22 21 -45 31 -52 14 -11 -115 -13 -675 -13 l-692 0 0 24 c0 13 3 38
6 55 l7 31 654 -2 655 -3 14 -40z"/>
<path d="M237 3279 c-11 -6 -25 -26 -33 -44 -13 -31 3 -117 226 -1284 132
-688 244 -1260 250 -1271 6 -11 19 -24 30 -30 11 -6 121 -10 280 -10 232 0
261 2 256 15 -7 19 -32 110 -40 148 -6 24 -11 27 -46 27 -22 0 -40 1 -40 3 0
1 -74 512 -164 1135 l-163 1132 783 0 c545 0 783 -3 786 -11 2 -7 39 0 103 17
55 15 101 28 102 29 2 1 6 22 9 48 6 42 4 49 -24 76 l-30 31 -1134 0 c-787 -1
-1139 -4 -1151 -11z"/>
<path d="M3040 3004 c-585 -51 -1048 -234 -1356 -538 -162 -160 -256 -323
-299 -519 -13 -60 -16 -108 -12 -205 5 -145 24 -227 59 -256 15 -13 19 -20 10
-23 -23 -8 -72 -91 -84 -142 -21 -93 26 -213 102 -259 l29 -18 -35 -13 c-66
-24 -80 -97 -43 -237 39 -154 161 -361 267 -456 l42 -38 1507 0 1507 0 51 53
c146 150 255 371 271 548 7 68 7 68 -29 104 -20 20 -45 35 -58 35 -22 0 -22 2
8 20 72 43 122 157 109 242 -8 48 -39 112 -71 144 -23 23 -23 24 -6 34 65 34
92 335 46 504 -87 325 -340 596 -730 786 -308 150 -649 227 -1040 234 -110 2
-220 2 -245 0z m385 -234 c585 -51 1075 -284 1302 -620 77 -115 113 -220 120
-357 l6 -103 -1627 0 -1626 0 0 83 c0 105 19 179 74 292 229 464 989 770 1751
705z m1534 -1406 c3 -2 -170 -256 -190 -278 -5 -5 -34 2 -70 19 -34 15 -107
43 -161 61 -494 168 -939 145 -1385 -73 -66 -32 -118 -51 -125 -47 -32 20
-468 326 -468 330 0 4 2393 -7 2399 -12z m-159 -560 c0 -17 -95 -186 -127
-226 l-38 -47 -1411 -1 -1412 0 -41 54 c-43 57 -104 165 -116 204 l-6 22 1575
0 c867 0 1576 -3 1576 -6z"/>
</g>
</svg>
