<svg version="1.0" xmlns="http://www.w3.org/2000/svg" width="266.667" height="266.667" viewBox="0 0 200 200"><g fill="#103153"><path d="M71.3 18.5l-2 1.4 1.8 10.2C73 40.4 72.9 42 70.5 42c-1.7 0-2-1.1-3.5-10.3-.8-4.7-1.7-7.7-2.5-7.7-2.3 0-9.3 5.9-12.5 10.5-3.3 4.7-5.4 10.3-6.5 16.7-.4 2.7-1.1 3.8-2.3 3.8-2.6 0-4.2 2-4.2 5.1 0 6-.6 5.9 42 5.9 42 0 42 0 42-5.3 0-3-1.1-4.4-4.1-5.6-2.2-.8-2.7-1.7-3.2-5.9-1.1-9.2-8.7-20.6-16.5-24.6l-3-1.5-.7 4.7c-1.4 9.7-2.7 14.2-4 14.2-2.4 0-2.5-1.6-.8-12 1.7-10 1.7-10.2-.2-11.6-2.6-1.9-16.3-1.9-19.2.1zM46 72.7c0 5 2.9 15.2 6.1 21.4 11.6 23.1 34 28.1 49.9 11.3 5.5-5.8 10-14.5 12.5-23.9 2.2-8.7 2-11.5-.8-11.5-2.1 0-2.5.7-3.6 6.5-2.8 13.7-11.2 26.4-20.4 30.6-15.8 7.1-33.5-7.1-37.8-30.4-1.1-6-1.5-6.7-3.6-6.7-1.8 0-2.3.5-2.3 2.7zM162.2 91.3c-2.3 2.3-4.2 5.2-4.2 6.3 0 2.4 4.1 6.6 6.1 6.2 2.9-.7 2 3.5-1.7 7.3l-3.8 3.9 4.6 4.7 4.7 4.6 4.1-3.7c3.4-3.1 4.4-3.5 5.6-2.5 1.1.9 1.4 2.3 1 4.4-.5 2.4-.1 3.6 1.4 5 2 1.8 2.1 1.8 4.6-.6 4-3.7 5.4-7.3 5.4-13.9 0-6-.1-6.2-5.1-11.5-3-3.2-6.3-5.6-8.1-6-2.1-.5-2.8-1.1-2.3-2.3.7-2-3.2-6.2-6-6.2-1.1 0-4 1.9-6.3 4.3z"/><path d="M135.7 92.8c-1.6 1.7-1.4 2.1 2.3 5.7 4.9 4.7 5.5 9.8 1.7 13.3-3.5 3.3-6.5 2.8-11.4-2-3.6-3.5-4.7-4.1-6.1-3.2-2.7 1.7-2.7 7.4 0 11.4 3.9 5.7 8.2 8 15.2 8h6.1l17.2 17.2c15.7 15.7 17.5 17.2 20.7 17.2 4.7 0 7.6-2.7 7.6-7.3 0-3.3-1.3-4.9-17.2-20.8l-17.2-17.2.3-5.1c.4-7.1-2.8-13.2-8.3-16.5-5.1-3-8.7-3.2-10.9-.7z"/><path d="M43.5 111.4C22.6 118 10 135.2 10 156.7c0 10.8 2 15.9 7.9 20.1 7.5 5.5 10 5.7 63.6 5.7 44.3 0 49.6-.2 54.8-1.8 7-2.1 12.7-7.4 14.5-13.3 1.4-4.8 1.6-18.4.3-18.4-.5 0-4.6 4-9.2 9-10.4 11.4-11.6 11.6-20.1 3.2-8.5-8.6-8.3-9.5 4.8-21.6l10.5-9.9-4.8-1.6c-7.8-2.6-11.5-6.1-14.3-13.1-1.6-4.1-2.6-5-6-5-2.1 0-3 1.1-5.7 6.8-3.4 7.1-17.3 29.2-18.5 29.2-.3 0-.8-3.5-1-7.8-.3-7.2-.1-7.9 2.4-11 1.6-1.8 2.8-4.2 2.8-5.3 0-1.6-.4-1.8-2.7-1.2-3.6 1-13 1-16.5 0-2.4-.6-2.8-.4-2.8 1.2 0 1.1 1.1 3.3 2.5 4.9 2.1 2.5 2.5 4 2.5 9.5 0 11.3-.5 11.1-9.5-2.7-4.5-6.9-9.3-15-10.6-18.1-2.7-6.1-3.8-6.5-11.4-4.1z"/><path d="M133 137.5c-4.1 4.1-8 7.5-8.6 7.5-1.5 0-6.4 5.7-6.4 7.4 0 1.7 11.3 12.6 13.1 12.6 1.7 0 6.9-5 6.9-6.7 0-.6 3.3-4.1 7.3-7.8 3.9-3.7 7.5-7.7 7.8-8.9.5-1.6-.5-3.2-4-6.9-2.5-2.6-5.4-4.7-6.6-4.7-1.2 0-5 3-9.5 7.5z"/></g></svg>