<?xml version="1.0" standalone="no"?>
<!DOCTYPE svg PUBLIC "-//W3C//DTD SVG 20010904//EN"
 "http://www.w3.org/TR/2001/REC-SVG-20010904/DTD/svg10.dtd">
<svg version="1.0" xmlns="http://www.w3.org/2000/svg"
 width="512.000000pt" height="512.000000pt" viewBox="0 0 512.000000 512.000000"
 preserveAspectRatio="xMidYMid meet">
<metadata>
Created by potrace 1.16, written by Peter Selinger 2001-2019
</metadata>
<g transform="translate(0.000000,512.000000) scale(0.100000,-0.100000)"
fill="#103153" stroke="none">
<path d="M2020 5101 c-175 -56 -308 -208 -342 -390 -32 -171 46 -393 187 -537
175 -178 410 -185 586 -17 137 130 210 290 211 462 2 229 -133 414 -352 483
-73 24 -216 23 -290 -1z"/>
<path d="M3513 4673 c4 -16 22 -85 41 -156 l34 -127 -45 -35 c-46 -35 -68 -40
-134 -29 l-35 6 -39 147 c-21 80 -42 150 -46 155 -15 17 -109 -115 -135 -186
-19 -53 -21 -169 -4 -223 30 -101 129 -200 228 -228 l46 -14 38 -139 38 -139
-107 -103 c-77 -73 -110 -99 -116 -90 -5 7 -48 72 -95 143 -58 87 -100 139
-127 157 -44 30 -253 94 -435 134 -324 71 -561 72 -890 4 -119 -25 -356 -93
-415 -119 -57 -25 -100 -74 -119 -134 -33 -108 -318 -1414 -317 -1457 0 -104
63 -177 167 -195 93 -15 192 46 217 134 8 25 76 327 152 671 76 344 143 630
149 636 6 7 21 15 34 19 l22 6 0 -638 0 -638 -81 -1010 c-87 -1086 -86 -1052
-36 -1126 12 -18 42 -47 65 -63 35 -25 55 -31 112 -34 38 -2 84 1 106 8 57 19
120 88 138 152 9 32 40 377 81 888 36 459 68 849 70 865 l5 30 90 0 c68 0 90
-3 90 -13 0 -7 32 -405 70 -883 51 -626 75 -881 86 -907 63 -152 266 -192 388
-76 44 41 66 99 66 174 0 36 -34 485 -75 998 l-75 931 2 669 3 669 47 -16 c47
-16 50 -19 190 -236 126 -193 149 -223 188 -245 54 -30 137 -32 189 -6 18 10
88 71 155 137 l123 119 21 -77 21 -76 -39 -45 c-80 -91 -105 -235 -60 -354 26
-71 97 -151 161 -184 75 -37 149 -65 149 -54 0 5 -18 76 -40 157 l-40 148 37
33 c47 40 66 45 128 35 l49 -8 42 -155 c23 -85 45 -154 48 -153 14 3 94 114
118 161 34 69 38 196 8 274 -29 78 -99 154 -175 189 -33 16 -67 29 -75 29 -11
0 -27 44 -58 161 -38 145 -41 163 -28 178 83 91 44 257 -70 306 -34 14 -36 18
-74 158 l-21 78 36 41 c55 60 78 120 83 213 9 170 -76 290 -257 363 -69 28
-75 28 -68 -5z"/>
</g>
</svg>
