<?xml version="1.0" standalone="no"?>
<!DOCTYPE svg PUBLIC "-//W3C//DTD SVG 20010904//EN"
 "http://www.w3.org/TR/2001/REC-SVG-20010904/DTD/svg10.dtd">
<svg version="1.0" xmlns="http://www.w3.org/2000/svg"
 width="200.000000pt" height="200.000000pt" viewBox="0 0 200.000000 200.000000"
 preserveAspectRatio="xMidYMid meet">
<metadata>
Created by potrace 1.16, written by Peter Selinger 2001-2019
</metadata>
<g transform="translate(0.000000,200.000000) scale(0.100000,-0.100000)"
fill="#103153" stroke="none">
<path d="M981 1978 c-64 -34 -104 -88 -105 -140 -1 -37 2 -43 21 -46 20 -3 21
-9 21 -66 -1 -52 4 -72 25 -109 58 -98 197 -117 280 -39 44 41 57 75 57 146 0
59 2 65 23 68 55 8 17 118 -61 173 -39 27 -53 30 -130 33 -76 3 -93 0 -131
-20z"/>
<path d="M870 1478 c-117 -59 -170 -222 -174 -528 -2 -126 -5 -161 -20 -188
-9 -19 -15 -40 -12 -47 2 -7 -35 -78 -84 -157 -48 -78 -86 -146 -83 -150 7
-13 30 -9 36 5 3 8 42 73 87 146 l82 132 33 -21 c18 -11 39 -20 48 -20 8 0 32
30 54 66 l38 65 5 -366 5 -367 28 -24 c31 -26 92 -33 129 -13 45 24 48 55 48
444 0 237 4 365 10 365 6 0 10 -128 10 -365 0 -389 3 -420 48 -444 12 -6 39
-11 62 -11 33 0 48 6 71 29 l29 29 1 609 1 608 20 -75 c15 -59 20 -115 22
-259 2 -178 3 -185 25 -202 31 -25 54 -24 86 4 l26 22 0 170 c0 253 -31 392
-108 493 -30 40 -93 71 -144 72 -33 0 -37 -3 -43 -31 -3 -17 -6 -44 -6 -60 0
-37 -12 -37 -44 2 l-26 31 21 29 20 29 -71 0 c-74 0 -76 -2 -43 -42 13 -15 11
-21 -21 -55 l-35 -38 -1 30 c0 17 -3 47 -6 68 -6 35 -9 37 -43 37 -20 0 -57
-10 -81 -22z"/>
</g>
</svg>
