<?xml version="1.0" standalone="no"?>
<!DOCTYPE svg PUBLIC "-//W3C//DTD SVG 20010904//EN"
 "http://www.w3.org/TR/2001/REC-SVG-20010904/DTD/svg10.dtd">
<svg version="1.0" xmlns="http://www.w3.org/2000/svg"
 width="311.000000pt" height="162.000000pt" viewBox="0 0 311.000000 162.000000"
 preserveAspectRatio="xMidYMid meet">
<metadata>
Created by potrace 1.16, written by Peter Selinger 2001-2019
</metadata>
<g transform="translate(0.000000,162.000000) scale(0.100000,-0.100000)"
fill="#103153" stroke="none">
<path d="M1807 1474 c-4 -4 -7 -20 -7 -36 l0 -28 -128 0 c-174 0 -172 2 -172
-140 l0 -108 -87 28 c-49 15 -107 31 -130 35 l-43 7 0 -34 c0 -18 5 -62 10
-96 8 -60 -1 -112 -20 -112 -17 0 -27 49 -19 100 4 30 8 75 8 98 l1 44 -42 -7
c-23 -4 -58 -13 -78 -20 l-35 -12 -28 -119 c-33 -143 -32 -179 2 -179 28 0 29
4 61 148 12 53 26 97 31 97 14 0 11 -153 -6 -355 -9 -99 -15 -194 -13 -211 1
-22 -6 -41 -25 -63 -35 -42 -36 -95 -2 -145 l25 -37 -23 -8 c-53 -20 -117 -94
-117 -134 0 -29 61 -42 201 -42 106 0 140 3 159 16 22 14 26 14 54 0 45 -23
301 -23 337 0 22 15 26 15 48 1 17 -12 56 -17 145 -20 144 -4 209 10 214 47 5
34 -40 94 -91 121 l-46 25 20 21 c47 51 40 141 -14 175 -85 53 -187 -24 -159
-120 7 -21 21 -46 32 -56 19 -17 19 -18 -32 -49 -33 -19 -61 -46 -74 -70 -20
-35 -22 -37 -29 -17 -11 35 -51 76 -95 96 l-40 18 19 21 c22 23 41 68 41 95 0
10 -10 34 -23 53 l-24 34 51 192 51 192 42 0 42 0 3 -142 c3 -119 5 -143 18
-143 13 0 15 24 18 143 l3 142 38 0 c46 0 39 14 97 -205 45 -171 50 -185 69
-185 23 0 19 30 -30 210 -25 91 -45 168 -45 173 0 4 26 7 59 7 44 0 65 5 85
21 l26 20 0 205 c0 260 11 244 -169 244 l-130 0 -3 32 c-3 31 -17 45 -31 32z
m291 -106 c17 -17 17 -389 0 -406 -9 -9 -84 -12 -274 -12 -144 0 -269 3 -278
6 -25 10 -22 108 4 134 16 16 18 25 10 40 -6 11 -15 20 -20 20 -11 0 -14 213
-3 223 3 4 128 7 278 7 197 0 274 -3 283 -12z m-676 -254 l78 -26 0 -68 c0
-87 15 -100 108 -100 50 0 63 -3 59 -13 -3 -8 -22 -76 -42 -153 -52 -200 -54
-204 -76 -204 -29 0 -77 -27 -89 -49 -18 -35 -12 -96 14 -134 l24 -35 -26 -12
c-38 -16 -67 -41 -96 -85 -15 -21 -26 -31 -26 -22 0 24 -55 82 -95 101 l-36
17 22 31 c12 16 24 49 26 72 4 35 1 47 -21 73 -15 18 -36 35 -47 38 -10 4 -17
9 -15 13 2 4 10 76 16 160 12 137 15 152 31 152 12 0 19 -7 19 -20 0 -58 22
-278 30 -297 11 -27 42 -30 61 -7 10 12 10 44 1 167 -13 169 -16 427 -5 427 5
0 43 -12 85 -26z"/>
<path d="M1189 1415 c-34 -19 -52 -66 -38 -103 27 -72 90 -94 133 -47 48 51
40 122 -15 150 -34 18 -47 18 -80 0z"/>
</g>
</svg>
